<?xml version="1.0" encoding="UTF-8"?>
<svg id="Calque_2" data-name="Calque 2" xmlns="http://www.w3.org/2000/svg" viewBox="0 0 429.62 423.94">
  <defs>
    <style>
      .cls-1 {
        fill: #fdc801;
      }

      .cls-1, .cls-2, .cls-3 {
        stroke-width: 0px;
      }

      .cls-2 {
        fill: #fff;
      }

      .cls-3 {
        fill: #5b2483;
      }
    </style>
  </defs>
  <g id="Calque_1-2" data-name="Calque 1">
    <g>
      <path class="cls-3" d="m85.73,46.24c-201.93,144.93-12.76,454.29,212.37,360.21,290.25-121.3,46.1-545.7-212.37-360.21"/>
      <g>
        <path id="thumb-9" class="cls-1" d="m380.38,255.26c-3.3.28-3.15-2.6-.65-3.47,2-.7,5.53-2.14,3.8-6.77-.9-2.41-3-4.56-9.73-3.67-4.41.58-11.55,2.34-20.77,2.16-2.03-18.23-3.25-35.1-12.2-32.73-5.9,1.56-4.87,8.47-4.74,15.09.44,21.5-7.81,23.97-15.19,29.26-.95.68-1.39,1.86-1.13,2.99l8.1,36.33c.3,1.36,1.53,2.31,2.92,2.28,15.45-.37,24.33,2.41,39.13-.89,11.95-2.67,19.09-5.53,16.39-11.85-.51-1.18-1.93-1.5-4.55-1.12-3.08.44-3.5-3.3-.59-3.95,6.08-1.35,5.92-3.16,5.45-6.93-.38-3.01-2.33-3.49-5.09-3.5-3.29-.01-3.19-3.07-.6-3.72,5.79-1.45,5.62-2.85,5.17-6.02s-2.51-3.79-5.72-3.51Z"/>
        <rect class="cls-1" x="297.65" y="256.84" width="19.14" height="45.94" rx="2.92" ry="2.92" transform="translate(-53.55 73.6) rotate(-12.57)"/>
      </g>
      <g>
        <path class="cls-2" d="m101.72,268.81c.75,0,1.31.58,1.31,1.31,0,2.73-1.68,5.58-5.58,5.58-1.95,0-5.55-.87-5.55-6.13v-8.89c0-5.26,3.6-6.13,5.55-6.13,3.89,0,5.58,2.85,5.58,5.58,0,.73-.55,1.31-1.31,1.31s-1.34-.58-1.34-1.31c0-1.95-1.25-3.2-2.94-3.2-1.48,0-2.91,1.02-2.91,3.75v8.89c0,2.73,1.42,3.75,2.91,3.75,1.69,0,2.94-1.25,2.94-3.2,0-.73.55-1.31,1.34-1.31Z"/>
        <path class="cls-2" d="m105.44,269.56v-8.89c0-5.26,3.95-6.13,5.9-6.13s5.9.87,5.9,6.13v8.89c0,5.26-3.95,6.13-5.9,6.13s-5.9-.87-5.9-6.13Zm9.15-8.89c0-2.88-1.8-3.75-3.26-3.75s-3.25.87-3.25,3.75v8.89c0,2.88,1.77,3.75,3.25,3.75s3.26-.87,3.26-3.75v-8.89Z"/>
        <path class="cls-2" d="m120.23,260.67c0-5.41,3.34-6.13,5.29-6.13,1.28,0,3.14.52,3.95,2.09.81-1.57,2.67-2.09,3.95-2.09,1.95,0,5.29.73,5.29,6.13v13.45c0,.73-.55,1.31-1.31,1.31s-1.34-.58-1.34-1.31v-13.45c0-2.88-1.37-3.75-2.64-3.75-1.13,0-2.64.87-2.64,3.75v13.31c0,.73-.55,1.31-1.31,1.31s-1.31-.58-1.31-1.31v-13.31c0-2.88-1.51-3.75-2.64-3.75-1.25,0-2.64.87-2.64,3.75v13.45c0,.73-.55,1.31-1.31,1.31s-1.34-.58-1.34-1.31v-13.45Z"/>
        <path class="cls-2" d="m141.84,260.67c0-5.41,3.34-6.13,5.29-6.13,1.28,0,3.14.52,3.95,2.09.81-1.57,2.67-2.09,3.95-2.09,1.95,0,5.29.73,5.29,6.13v13.45c0,.73-.55,1.31-1.31,1.31s-1.34-.58-1.34-1.31v-13.45c0-2.88-1.37-3.75-2.64-3.75-1.13,0-2.64.87-2.64,3.75v13.31c0,.73-.55,1.31-1.31,1.31s-1.31-.58-1.31-1.31v-13.31c0-2.88-1.51-3.75-2.64-3.75-1.25,0-2.64.87-2.64,3.75v13.45c0,.73-.55,1.31-1.31,1.31s-1.34-.58-1.34-1.31v-13.45Z"/>
        <path class="cls-2" d="m163.46,256.11c0-.73.55-1.31,1.34-1.31s1.31.58,1.31,1.31v13.45c0,2.88,1.71,3.75,3.2,3.75s3.2-.87,3.2-3.75v-13.45c0-.73.55-1.31,1.34-1.31s1.31.58,1.31,1.31v13.45c0,5.41-3.89,6.13-5.84,6.13s-5.84-.73-5.84-6.13v-13.45Z"/>
        <path class="cls-2" d="m178.28,260.67c0-5.41,3.84-6.13,5.78-6.13s5.78.73,5.78,6.13v13.45c0,.73-.55,1.31-1.34,1.31s-1.31-.58-1.31-1.31v-13.45c0-2.88-1.66-3.75-3.14-3.75s-3.14.87-3.14,3.75v13.45c0,.73-.55,1.31-1.34,1.31s-1.31-.58-1.31-1.31v-13.45Z"/>
        <path class="cls-2" d="m193.45,256.11c0-.73.55-1.31,1.31-1.31s1.31.58,1.31,1.31v18.02c0,.73-.55,1.31-1.28,1.31-.78,0-1.34-.58-1.34-1.31v-18.02Z"/>
        <path class="cls-2" d="m209.34,268.81c.75,0,1.31.58,1.31,1.31,0,2.73-1.69,5.58-5.58,5.58-1.95,0-5.55-.87-5.55-6.13v-8.89c0-5.26,3.6-6.13,5.55-6.13,3.89,0,5.58,2.85,5.58,5.58,0,.73-.55,1.31-1.31,1.31s-1.34-.58-1.34-1.31c0-1.95-1.25-3.2-2.93-3.2-1.48,0-2.91,1.02-2.91,3.75v8.89c0,2.73,1.42,3.75,2.91,3.75,1.68,0,2.93-1.25,2.93-3.2,0-.73.55-1.31,1.34-1.31Z"/>
        <path class="cls-2" d="m224.54,274.12c0,.73-.55,1.31-1.31,1.31s-1.34-.58-1.34-1.31v-8.11h-6.04v8.11c0,.73-.55,1.31-1.31,1.31s-1.34-.58-1.34-1.31v-13.45c0-5.41,3.72-6.13,5.67-6.13s5.67.73,5.67,6.13v13.45Zm-2.64-10.52v-2.93c0-2.88-1.57-3.75-3.02-3.75s-3.02.87-3.02,3.75v2.93h6.04Z"/>
        <path class="cls-2" d="m233.78,274.12c0,.73-.55,1.31-1.31,1.31s-1.34-.58-1.34-1.31v-16.8h-3.66c-.64,0-1.16-.49-1.16-1.19s.52-1.19,1.16-1.19h9.94c.64,0,1.16.49,1.16,1.19s-.52,1.19-1.16,1.19h-3.63v16.8Z"/>
        <path class="cls-2" d="m241.59,256.11c0-.73.55-1.31,1.31-1.31s1.31.58,1.31,1.31v18.02c0,.73-.55,1.31-1.28,1.31-.78,0-1.34-.58-1.34-1.31v-18.02Z"/>
        <path class="cls-2" d="m247.67,269.56v-8.89c0-5.26,3.95-6.13,5.9-6.13s5.9.87,5.9,6.13v8.89c0,5.26-3.95,6.13-5.9,6.13s-5.9-.87-5.9-6.13Zm9.15-8.89c0-2.88-1.8-3.75-3.26-3.75s-3.25.87-3.25,3.75v8.89c0,2.88,1.77,3.75,3.25,3.75s3.26-.87,3.26-3.75v-8.89Z"/>
        <path class="cls-2" d="m262.46,260.67c0-5.41,3.84-6.13,5.78-6.13s5.78.73,5.78,6.13v13.45c0,.73-.55,1.31-1.34,1.31s-1.31-.58-1.31-1.31v-13.45c0-2.88-1.66-3.75-3.14-3.75s-3.14.87-3.14,3.75v13.45c0,.73-.55,1.31-1.34,1.31s-1.31-.58-1.31-1.31v-13.45Z"/>
        <path class="cls-2" d="m92.19,290.72c0-.73.55-1.31,1.31-1.31h4.5c1.95,0,5.43.76,5.43,6.13v8.08c0,5.38-3.49,6.13-5.43,6.13h-4.5c-.76,0-1.31-.58-1.31-1.31v-17.73Zm2.64,16.65h3.17c1.45,0,2.79-.9,2.79-3.75v-8.08c0-2.85-1.34-3.75-2.79-3.75h-3.17v15.58Z"/>
        <path class="cls-2" d="m106.89,290.57c0-.73.55-1.31,1.31-1.31s1.31.58,1.31,1.31v18.02c0,.73-.55,1.31-1.28,1.31-.78,0-1.34-.58-1.34-1.31v-18.02Z"/>
        <path class="cls-2" d="m123.07,295.89c-.78,0-1.34-.58-1.34-1.31,0-1.95-1.37-3.2-3.08-3.2-1.48,0-3.05,1.02-3.05,3.75v8.49c0,2.7,1.57,3.75,3.05,3.75h3.08v-6.89h-1.89c-.64,0-1.16-.49-1.16-1.19s.52-1.22,1.16-1.22h3.23c.76,0,1.31.58,1.31,1.31v9.07c0,.73-.55,1.31-1.31,1.31h-4.42c-1.95,0-5.7-.9-5.7-6.13v-8.49c0-5.26,3.75-6.13,5.7-6.13,3.89,0,5.72,2.85,5.72,5.58,0,.73-.55,1.31-1.31,1.31Z"/>
        <path class="cls-2" d="m127.98,290.57c0-.73.55-1.31,1.31-1.31s1.31.58,1.31,1.31v18.02c0,.73-.55,1.31-1.28,1.31-.78,0-1.34-.58-1.34-1.31v-18.02Z"/>
        <path class="cls-2" d="m141.09,308.59c0,.73-.55,1.31-1.31,1.31s-1.34-.58-1.34-1.31v-16.8h-3.66c-.64,0-1.16-.49-1.16-1.19s.52-1.19,1.16-1.19h9.94c.64,0,1.16.49,1.16,1.19s-.52,1.19-1.16,1.19h-3.63v16.8Z"/>
        <path class="cls-2" d="m158.99,308.59c0,.73-.55,1.31-1.31,1.31s-1.34-.58-1.34-1.31v-8.11h-6.04v8.11c0,.73-.55,1.31-1.31,1.31s-1.34-.58-1.34-1.31v-13.45c0-5.41,3.72-6.13,5.67-6.13s5.67.73,5.67,6.13v13.45Zm-2.64-10.52v-2.93c0-2.88-1.57-3.75-3.02-3.75s-3.02.87-3.02,3.75v2.93h6.04Z"/>
        <path class="cls-2" d="m162.27,290.57c0-.73.55-1.31,1.34-1.31s1.31.58,1.31,1.31v16.8h5.93c.64,0,1.16.49,1.16,1.19s-.52,1.19-1.16,1.19h-7.26c-.76,0-1.31-.58-1.31-1.31v-17.87Z"/>
        <path class="cls-2" d="m174.62,290.72c0-.73.55-1.31,1.31-1.31h7.53c.64,0,1.16.49,1.16,1.19s-.52,1.19-1.16,1.19h-6.19v6.28h5.08c.64,0,1.16.49,1.16,1.19s-.52,1.22-1.16,1.22h-5.08v6.89h6.19c.64,0,1.16.49,1.16,1.19s-.52,1.19-1.16,1.19h-7.53c-.76,0-1.31-.58-1.31-1.31v-17.73Z"/>
      </g>
      <path class="cls-2" d="m269.09,207.88c-5.41,0-9.8-4.39-9.8-9.79v-60.23c0-20.38-16.58-36.97-36.97-36.97-3.35,0-36.86-.01-36.86-.01v97.21c0,5.4-4.4,9.79-9.8,9.79s-9.8-4.39-9.8-9.79v-60.23c0-20.38-16.58-36.97-36.97-36.97s-36.98,16.59-36.98,36.97v94.75h27.18v-94.75c0-5.4,4.4-9.79,9.8-9.79s9.79,4.39,9.79,9.79v60.23c0,20.38,16.6,36.97,36.98,36.97s36.97-16.59,36.98-36.97v-61.74c.73-4.68,4.8-8.28,9.69-8.28,5.4,0,9.79,4.39,9.79,9.79v60.23c0,20.38,16.6,36.97,36.98,36.97s36.97-16.59,36.98-36.97v-96.98h-27.15l-.02,96.98c0,5.4-4.4,9.79-9.8,9.79"/>
    </g>
  </g>
</svg>