<?xml version="1.0" encoding="UTF-8"?>
<svg id="Calque_2" data-name="Calque 2" xmlns="http://www.w3.org/2000/svg" viewBox="0 0 361.67 356.89">
  <defs>
    <style>
      .cls-1 {
        fill: #fff;
      }

      .cls-1, .cls-2, .cls-3, .cls-4 {
        stroke-width: 0px;
      }

      .cls-2 {
        fill: #fec800;
      }

      .cls-3 {
        fill: #1d1d1b;
      }

      .cls-4 {
        fill: #00a5a5;
      }
    </style>
  </defs>
  <g id="Calque_1-2" data-name="Calque 1">
    <g>
      <rect class="cls-4" width="361.67" height="356.89" rx="73.47" ry="73.47"/>
      <g>
        <path class="cls-3" d="m66.5,187.92v22.02h28.96v-7.9c.02-.22.07-.44.07-.66v-13.46h-29.03Zm224.26-107.03l-20.1-.09,7.9-15.32,4.43.02,7.76,15.38Zm4.49,92.18v-90.44h0c0-.28-.07-.55-.18-.78h0l-12.73-25.22h0c-.28-.55-.85-.94-1.52-.94s-1.24.37-1.52.93h0l-12.95,25.11h0c-.12.23-.19.5-.19.78l.07,90.57c0,4.34-2.67,8.07-6.45,9.65v-.16c-.98.46-2.04.73-3.15.88-.29.02-.57.09-.86.09-5.78,0-10.47-4.69-10.47-10.46v-64.56c0-21.77-17.71-39.49-39.49-39.49-3.53,0-38.41-.01-39.35-.01-.01,0-.02,0-.02.02v.36h-.23v103.77c0,4.31-2.63,8.02-6.37,9.61-1.2.48-2.5.76-3.87.76-5.78,0-10.47-4.69-10.47-10.46v-64.56c0-21.77-17.71-39.49-39.49-39.49s-39.5,17.72-39.5,39.49v.28h0v72.82h29.03v-72.82c0-1.5.31-2.93.85-4.23,1.63-3.64,5.28-6.2,9.53-6.2,5.75,0,10.44,4.68,10.44,10.43v64.36c0,21.42,17.21,38.87,38.52,39.35.24,0,.47.04.71.04.03,0,.05,0,.08,0,.03,0,.06,0,.1,0,.33,0,.65-.04.98-.05,21.41-.42,38.72-17.93,38.73-39.44v-66.18h0c.3-1.92,1.12-3.66,2.32-5.08.1-.11.21-.22.32-.33.2-.22.42-.43.64-.64,1.82-1.55,4.18-2.49,6.75-2.49,5.76,0,10.44,4.68,10.44,10.43v64.36c0,21.72,17.69,39.4,39.41,39.4.01,0,.03,0,.04,0,0,0,0,0,.01,0,21.94.21,39.87-17.59,39.88-39.49"/>
        <path class="cls-2" d="m66.5,187.92v22.02h28.96v-7.9c.02-.22.07-.44.07-.66v-13.46h-29.03Z"/>
        <polygon class="cls-1" points="282.99 65.51 278.56 65.49 270.66 80.81 290.76 80.89 282.99 65.51"/>
        <g>
          <path class="cls-1" d="m78.76,251.69c.95,0,1.64.73,1.64,1.64,0,3.43-2.12,7.01-7.01,7.01-2.45,0-6.97-1.09-6.97-7.7v-11.17c0-6.61,4.53-7.7,6.97-7.7,4.89,0,7.01,3.58,7.01,7.01,0,.91-.69,1.64-1.64,1.64s-1.68-.73-1.68-1.64c0-2.45-1.57-4.01-3.69-4.01-1.86,0-3.65,1.28-3.65,4.71v11.17c0,3.43,1.79,4.71,3.65,4.71,2.12,0,3.69-1.57,3.69-4.01,0-.91.69-1.64,1.68-1.64Z"/>
          <path class="cls-1" d="m83.43,252.64v-11.17c0-6.61,4.96-7.7,7.41-7.7s7.41,1.1,7.41,7.7v11.17c0,6.61-4.96,7.7-7.41,7.7s-7.41-1.09-7.41-7.7Zm11.5-11.17c0-3.61-2.26-4.71-4.09-4.71s-4.09,1.09-4.09,4.71v11.17c0,3.61,2.23,4.71,4.09,4.71s4.09-1.09,4.09-4.71v-11.17Z"/>
          <path class="cls-1" d="m102.01,241.47c0-6.79,4.2-7.7,6.64-7.7,1.61,0,3.94.66,4.96,2.63,1.02-1.97,3.36-2.63,4.96-2.63,2.45,0,6.64.91,6.64,7.7v16.9c0,.91-.69,1.64-1.64,1.64s-1.68-.73-1.68-1.64v-16.9c0-3.61-1.72-4.71-3.32-4.71-1.42,0-3.32,1.09-3.32,4.71v16.72c0,.91-.69,1.64-1.64,1.64s-1.64-.73-1.64-1.64v-16.72c0-3.61-1.9-4.71-3.32-4.71-1.57,0-3.32,1.09-3.32,4.71v16.9c0,.91-.69,1.64-1.64,1.64s-1.68-.73-1.68-1.64v-16.9Z"/>
          <path class="cls-1" d="m129.16,241.47c0-6.79,4.2-7.7,6.64-7.7,1.61,0,3.94.66,4.96,2.63,1.02-1.97,3.36-2.63,4.96-2.63,2.45,0,6.64.91,6.64,7.7v16.9c0,.91-.69,1.64-1.64,1.64s-1.68-.73-1.68-1.64v-16.9c0-3.61-1.72-4.71-3.32-4.71-1.42,0-3.32,1.09-3.32,4.71v16.72c0,.91-.69,1.64-1.64,1.64s-1.64-.73-1.64-1.64v-16.72c0-3.61-1.9-4.71-3.32-4.71-1.57,0-3.32,1.09-3.32,4.71v16.9c0,.91-.69,1.64-1.64,1.64s-1.68-.73-1.68-1.64v-16.9Z"/>
          <path class="cls-1" d="m156.32,235.74c0-.91.69-1.64,1.68-1.64s1.64.73,1.64,1.64v16.9c0,3.61,2.15,4.71,4.02,4.71s4.01-1.09,4.01-4.71v-16.9c0-.91.69-1.64,1.68-1.64s1.64.73,1.64,1.64v16.9c0,6.79-4.89,7.7-7.34,7.7s-7.34-.91-7.34-7.7v-16.9Z"/>
          <path class="cls-1" d="m174.94,241.47c0-6.79,4.82-7.7,7.26-7.7s7.26.91,7.26,7.7v16.9c0,.91-.69,1.64-1.68,1.64s-1.64-.73-1.64-1.64v-16.9c0-3.61-2.08-4.71-3.94-4.71s-3.94,1.09-3.94,4.71v16.9c0,.91-.69,1.64-1.68,1.64s-1.64-.73-1.64-1.64v-16.9Z"/>
          <path class="cls-1" d="m193.99,235.74c0-.91.69-1.64,1.64-1.64s1.64.73,1.64,1.64v22.63c0,.91-.69,1.64-1.61,1.64-.99,0-1.68-.73-1.68-1.64v-22.63Z"/>
          <path class="cls-1" d="m213.95,251.69c.95,0,1.64.73,1.64,1.64,0,3.43-2.12,7.01-7.01,7.01-2.45,0-6.97-1.09-6.97-7.7v-11.17c0-6.61,4.53-7.7,6.97-7.7,4.89,0,7.01,3.58,7.01,7.01,0,.91-.69,1.64-1.64,1.64s-1.68-.73-1.68-1.64c0-2.45-1.57-4.01-3.69-4.01-1.86,0-3.65,1.28-3.65,4.71v11.17c0,3.43,1.79,4.71,3.65,4.71,2.12,0,3.69-1.57,3.69-4.01,0-.91.69-1.64,1.68-1.64Z"/>
          <path class="cls-1" d="m233.04,258.37c0,.91-.69,1.64-1.64,1.64s-1.68-.73-1.68-1.64v-10.18h-7.59v10.18c0,.91-.69,1.64-1.64,1.64s-1.68-.73-1.68-1.64v-16.9c0-6.79,4.67-7.7,7.12-7.7s7.12.91,7.12,7.7v16.9Zm-3.32-13.21v-3.69c0-3.61-1.97-4.71-3.8-4.71s-3.8,1.09-3.8,4.71v3.69h7.59Z"/>
          <path class="cls-1" d="m244.65,258.37c0,.91-.69,1.64-1.64,1.64s-1.68-.73-1.68-1.64v-21.1h-4.6c-.8,0-1.46-.62-1.46-1.5s.66-1.5,1.46-1.5h12.48c.8,0,1.46.62,1.46,1.5s-.66,1.5-1.46,1.5h-4.56v21.1Z"/>
          <path class="cls-1" d="m254.47,235.74c0-.91.69-1.64,1.64-1.64s1.64.73,1.64,1.64v22.63c0,.91-.69,1.64-1.61,1.64-.99,0-1.68-.73-1.68-1.64v-22.63Z"/>
          <path class="cls-1" d="m262.1,252.64v-11.17c0-6.61,4.96-7.7,7.41-7.7s7.41,1.1,7.41,7.7v11.17c0,6.61-4.96,7.7-7.41,7.7s-7.41-1.09-7.41-7.7Zm11.5-11.17c0-3.61-2.26-4.71-4.09-4.71s-4.09,1.09-4.09,4.71v11.17c0,3.61,2.23,4.71,4.09,4.71s4.09-1.09,4.09-4.71v-11.17Z"/>
          <path class="cls-1" d="m280.67,241.47c0-6.79,4.82-7.7,7.26-7.7s7.26.91,7.26,7.7v16.9c0,.91-.69,1.64-1.68,1.64s-1.64-.73-1.64-1.64v-16.9c0-3.61-2.08-4.71-3.94-4.71s-3.94,1.09-3.94,4.71v16.9c0,.91-.69,1.64-1.68,1.64s-1.64-.73-1.64-1.64v-16.9Z"/>
          <path class="cls-1" d="m120.04,277.66c-.97,0-1.66-.72-1.66-1.62,0-2.41-1.69-3.96-3.82-3.96-1.84,0-3.78,1.26-3.78,4.64v10.51c0,3.35,1.94,4.64,3.78,4.64h3.82v-8.53h-2.34c-.79,0-1.44-.61-1.44-1.48s.65-1.51,1.44-1.51h4c.94,0,1.62.72,1.62,1.62v11.23c0,.9-.68,1.62-1.62,1.62h-5.47c-2.41,0-7.06-1.12-7.06-7.59v-10.51c0-6.52,4.64-7.6,7.06-7.6,4.82,0,7.09,3.53,7.09,6.91,0,.9-.68,1.62-1.62,1.62Z"/>
          <path class="cls-1" d="m125.73,271.25c0-.9.68-1.62,1.66-1.62h4.54c3.85,0,7.74,1.26,7.74,7.24,0,3.13-1.22,4.97-2.92,5.9,1.37,1.01,2.52,2.92,2.56,5.26l.07,5.36c0,.9-.68,1.62-1.62,1.62s-1.66-.72-1.66-1.62l-.07-5.36c-.04-2.95-2.2-3.92-4.64-3.92h-2.38v9.29c0,.9-.68,1.62-1.62,1.62s-1.66-.72-1.66-1.62v-22.14Zm6.19,9.86c3.1,0,4.46-1.66,4.46-4.25s-1.37-4.28-4.46-4.28h-2.92v8.53h2.92Z"/>
          <path class="cls-1" d="m157.41,293.39c0,.9-.68,1.62-1.62,1.62s-1.66-.72-1.66-1.62v-10.04h-7.49v10.04c0,.9-.68,1.62-1.62,1.62s-1.66-.72-1.66-1.62v-16.67c0-6.7,4.61-7.6,7.02-7.6s7.02.9,7.02,7.6v16.67Zm-3.28-13.03v-3.64c0-3.56-1.94-4.64-3.74-4.64s-3.74,1.08-3.74,4.64v3.64h7.49Z"/>
          <path class="cls-1" d="m164.76,293.39c0,.9-.68,1.62-1.62,1.62s-1.66-.72-1.66-1.62v-22.14c0-.9.68-1.62,1.66-1.62h5.22c3.85,0,7.74,1.26,7.74,7.24s-3.89,7.2-7.74,7.2h-3.6v9.32Zm3.6-12.31c3.1,0,4.46-1.62,4.46-4.21s-1.37-4.28-4.46-4.28h-3.6v8.5h3.6Z"/>
          <path class="cls-1" d="m182.54,293.39c0,.9-.68,1.62-1.62,1.62s-1.66-.72-1.66-1.62v-22.32c0-.9.68-1.62,1.66-1.62s1.62.72,1.62,1.62v9.29h7.56v-9.29c0-.9.68-1.62,1.66-1.62s1.62.72,1.62,1.62v22.32c0,.9-.68,1.62-1.62,1.62s-1.66-.72-1.66-1.62v-10.04h-7.56v10.04Z"/>
          <path class="cls-1" d="m198.02,271.07c0-.9.68-1.62,1.62-1.62s1.62.72,1.62,1.62v22.32c0,.9-.68,1.62-1.58,1.62-.97,0-1.66-.72-1.66-1.62v-22.32Z"/>
          <path class="cls-1" d="m219.87,299.58c0,.9-.68,1.62-1.62,1.62s-1.66-.72-1.66-1.62v-.22c0-2.38-1.26-4.03-3.82-4.03-2.41,0-7.24-1.01-7.24-7.59v-11.01c0-6.59,4.82-7.6,7.24-7.6s7.24,1.01,7.24,7.6v11.01c0,3.1-1.37,5.47-2.81,6.16,2.09.94,2.66,3.53,2.66,5.47v.22Zm-3.13-22.86c0-3.56-2.16-4.64-3.96-4.64s-3.96,1.08-3.96,4.64v11.01c0,3.56,2.12,4.64,3.96,4.64s3.96-1.08,3.96-4.64v-11.01Z"/>
          <path class="cls-1" d="m223.72,271.07c0-.9.68-1.62,1.66-1.62s1.62.72,1.62,1.62v16.67c0,3.56,2.12,4.64,3.96,4.64s3.96-1.08,3.96-4.64v-16.67c0-.9.68-1.62,1.66-1.62s1.62.72,1.62,1.62v16.67c0,6.7-4.82,7.59-7.24,7.59s-7.24-.9-7.24-7.59v-16.67Z"/>
          <path class="cls-1" d="m242.26,271.25c0-.9.68-1.62,1.62-1.62h9.32c.79,0,1.44.61,1.44,1.48s-.65,1.48-1.44,1.48h-7.67v7.78h6.3c.79,0,1.44.61,1.44,1.48s-.65,1.51-1.44,1.51h-6.3v8.53h7.67c.79,0,1.44.61,1.44,1.48s-.65,1.48-1.44,1.48h-9.32c-.94,0-1.62-.72-1.62-1.62v-21.96Z"/>
        </g>
      </g>
    </g>
  </g>
</svg>