<?xml version="1.0" encoding="UTF-8"?>
<svg id="Calque_2" data-name="Calque 2" xmlns="http://www.w3.org/2000/svg" viewBox="0 0 436.63 449.64">
  <defs>
    <style>
      .cls-1 {
        fill: #fff;
      }

      .cls-1, .cls-2, .cls-3 {
        stroke-width: 0px;
      }

      .cls-2 {
        fill: #e94a34;
      }

      .cls-3 {
        fill: #fec800;
      }
    </style>
  </defs>
  <g id="Calque_1-2" data-name="Calque 1">
    <g>
      <path class="cls-2" d="m436.63,310.94V47.62c0-26.25-21.42-47.62-47.75-47.62H47.87C21.47,0,0,21.36,0,47.62v263.32c0,26.35,21.47,47.78,47.87,47.78h156.67l89.83,87.04c2.62,2.54,6.08,3.88,9.59,3.88,1.81,0,3.63-.36,5.37-1.09,5.09-2.16,8.4-7.15,8.4-12.68v-77.15h71.16c26.33,0,47.75-21.43,47.75-47.78"/>
      <path class="cls-3" d="m50.84,145.56l15.97-.08c3.4.1,6.24-2.57,6.34-5.97.1-3.4-2.57-6.24-5.97-6.34-.16,0-.33,0-.49,0h-15.91c-3.43-.08-6.28,2.63-6.36,6.06-.08,3.43,2.63,6.28,6.06,6.36.11,0,.21,0,.32,0l.05-.02Zm68.66-81.09c-3.42.04-6.17,2.8-6.22,6.22v15.89c-.01,1.65.64,3.23,1.8,4.4,1.21,1.19,2.86,1.84,4.56,1.79,1.6-.12,3.11-.79,4.27-1.91,1.16-1.14,1.82-2.69,1.84-4.32v-15.91c0-3.39-2.74-6.15-6.13-6.16-.04,0-.08,0-.12,0m-31.37,34.74l-11.22-11.22c-2.39-2.39-6.27-2.39-8.66,0s-2.39,6.26,0,8.65l11.22,11.23c2.39,2.39,6.27,2.39,8.66,0,2.39-2.39,2.39-6.27,0-8.66"/>
      <path class="cls-1" d="m313.76,249.1c-6.52,0-11.81-5.29-11.81-11.8v-72.57c0-24.56-19.98-44.55-44.55-44.55-4.04,0-44.42-.01-44.42-.01v117.14c0,6.5-5.3,11.8-11.81,11.8s-11.81-5.29-11.81-11.8v-72.57c0-24.56-19.98-44.55-44.55-44.55s-44.56,19.99-44.56,44.55v114.17h32.75v-114.17c0-6.51,5.31-11.8,11.81-11.8s11.8,5.29,11.8,11.8v72.57c0,24.56,20,44.55,44.56,44.55s44.55-19.99,44.56-44.55v-74.4c.88-5.64,5.79-9.97,11.67-9.97,6.51,0,11.8,5.29,11.8,11.8v72.57c0,24.56,20,44.55,44.56,44.55s44.55-19.99,44.56-44.55v-116.86h-32.72l-.03,116.86c0,6.5-5.3,11.8-11.81,11.8"/>
      <g>
        <path class="cls-1" d="m153.52,81.22c0-5.16,3.19-5.85,5.05-5.85,1.22,0,2.99.5,3.77,2,.78-1.5,2.55-2,3.77-2,1.86,0,5.05.69,5.05,5.85v12.83c0,.69-.53,1.25-1.25,1.25s-1.28-.55-1.28-1.25v-12.83c0-2.74-1.3-3.58-2.52-3.58-1.08,0-2.52.83-2.52,3.58v12.7c0,.69-.53,1.25-1.25,1.25s-1.25-.55-1.25-1.25v-12.7c0-2.74-1.44-3.58-2.52-3.58-1.19,0-2.52.83-2.52,3.58v12.83c0,.69-.53,1.25-1.25,1.25s-1.28-.55-1.28-1.25v-12.83Z"/>
        <path class="cls-1" d="m184.95,94.05c0,.69-.53,1.25-1.25,1.25s-1.28-.55-1.28-1.25v-7.73h-5.77v7.73c0,.69-.53,1.25-1.25,1.25s-1.28-.55-1.28-1.25v-12.83c0-5.16,3.55-5.85,5.4-5.85s5.41.69,5.41,5.85v12.83Zm-2.52-10.03v-2.8c0-2.74-1.5-3.58-2.88-3.58s-2.88.83-2.88,3.58v2.8h5.77Z"/>
        <path class="cls-1" d="m188.08,77.01c0-.69.53-1.25,1.28-1.25h3.49c2.97,0,5.96.97,5.96,5.57,0,2.41-.94,3.83-2.25,4.55,1.05.78,1.94,2.24,1.97,4.05l.06,4.13c0,.69-.53,1.25-1.25,1.25s-1.28-.55-1.28-1.25l-.06-4.13c-.03-2.27-1.69-3.02-3.58-3.02h-1.83v7.15c0,.69-.53,1.25-1.25,1.25s-1.28-.55-1.28-1.25v-17.05Zm4.77,7.6c2.38,0,3.44-1.28,3.44-3.27s-1.05-3.3-3.44-3.3h-2.25v6.57h2.25Z"/>
        <path class="cls-1" d="m201.8,76.87c0-.69.53-1.25,1.28-1.25s1.25.55,1.25,1.25v7.15h1.72c1.86,0,3.44-.75,3.58-3.02l.03-4.13c0-.69.53-1.25,1.28-1.25s1.25.55,1.25,1.25l-.06,4.13c-.06,1.75-.8,3.44-2.08,4.05,1.5.58,2.3,2.25,2.36,4.55l.06,4.46c0,.69-.53,1.25-1.25,1.25s-1.28-.55-1.28-1.25l-.06-4.46c-.14-1.97-1.08-3.27-3.44-3.27h-2.11v7.73c0,.69-.53,1.25-1.25,1.25s-1.28-.55-1.28-1.25v-17.19Z"/>
        <path class="cls-1" d="m215.55,77.01c0-.69.53-1.25,1.25-1.25h7.18c.61,0,1.11.47,1.11,1.14s-.5,1.14-1.11,1.14h-5.9v5.99h4.85c.61,0,1.11.47,1.11,1.14s-.5,1.16-1.11,1.16h-4.85v6.57h5.9c.61,0,1.11.47,1.11,1.14s-.5,1.14-1.11,1.14h-7.18c-.72,0-1.25-.55-1.25-1.25v-16.91Z"/>
        <path class="cls-1" d="m234.54,94.05c0,.69-.53,1.25-1.25,1.25s-1.28-.55-1.28-1.25v-16.02h-3.49c-.61,0-1.11-.47-1.11-1.14s.5-1.14,1.11-1.14h9.48c.61,0,1.11.47,1.11,1.14s-.5,1.14-1.11,1.14h-3.46v16.02Z"/>
        <path class="cls-1" d="m241.99,76.87c0-.69.53-1.25,1.25-1.25s1.25.55,1.25,1.25v17.19c0,.69-.53,1.25-1.22,1.25-.75,0-1.28-.55-1.28-1.25v-17.19Z"/>
        <path class="cls-1" d="m247.93,81.22c0-5.16,3.66-5.85,5.52-5.85s5.52.69,5.52,5.85v12.83c0,.69-.53,1.25-1.28,1.25s-1.25-.55-1.25-1.25v-12.83c0-2.74-1.58-3.58-2.99-3.58s-2.99.83-2.99,3.58v12.83c0,.69-.53,1.25-1.28,1.25s-1.25-.55-1.25-1.25v-12.83Z"/>
        <path class="cls-1" d="m271.46,81.94c-.75,0-1.28-.55-1.28-1.25,0-1.86-1.3-3.05-2.94-3.05-1.41,0-2.91.97-2.91,3.58v8.09c0,2.58,1.5,3.58,2.91,3.58h2.94v-6.57h-1.8c-.61,0-1.11-.47-1.11-1.14s.5-1.16,1.11-1.16h3.08c.72,0,1.25.55,1.25,1.25v8.65c0,.69-.53,1.25-1.25,1.25h-4.21c-1.86,0-5.43-.86-5.43-5.85v-8.09c0-5.02,3.58-5.85,5.43-5.85,3.71,0,5.46,2.72,5.46,5.32,0,.69-.53,1.25-1.25,1.25Z"/>
        <path class="cls-1" d="m282.91,77.01c0-.69.53-1.25,1.25-1.25h4.3c1.86,0,5.18.72,5.18,5.85v7.71c0,5.13-3.33,5.85-5.18,5.85h-4.3c-.72,0-1.25-.55-1.25-1.25v-16.91Zm2.52,15.88h3.02c1.39,0,2.66-.86,2.66-3.58v-7.71c0-2.72-1.28-3.58-2.66-3.58h-3.02v14.86Z"/>
        <path class="cls-1" d="m296.93,76.87c0-.69.53-1.25,1.25-1.25s1.25.55,1.25,1.25v17.19c0,.69-.53,1.25-1.22,1.25-.75,0-1.28-.55-1.28-1.25v-17.19Z"/>
        <path class="cls-1" d="m312.37,81.94c-.75,0-1.28-.55-1.28-1.25,0-1.86-1.3-3.05-2.94-3.05-1.41,0-2.91.97-2.91,3.58v8.09c0,2.58,1.5,3.58,2.91,3.58h2.94v-6.57h-1.8c-.61,0-1.11-.47-1.11-1.14s.5-1.16,1.11-1.16h3.08c.72,0,1.25.55,1.25,1.25v8.65c0,.69-.53,1.25-1.25,1.25h-4.21c-1.86,0-5.43-.86-5.43-5.85v-8.09c0-5.02,3.58-5.85,5.43-5.85,3.71,0,5.46,2.72,5.46,5.32,0,.69-.53,1.25-1.25,1.25Z"/>
        <path class="cls-1" d="m317.05,76.87c0-.69.53-1.25,1.25-1.25s1.25.55,1.25,1.25v17.19c0,.69-.53,1.25-1.22,1.25-.75,0-1.28-.55-1.28-1.25v-17.19Z"/>
        <path class="cls-1" d="m329.55,94.05c0,.69-.53,1.25-1.25,1.25s-1.28-.55-1.28-1.25v-16.02h-3.49c-.61,0-1.11-.47-1.11-1.14s.5-1.14,1.11-1.14h9.48c.61,0,1.11.47,1.11,1.14s-.5,1.14-1.11,1.14h-3.46v16.02Z"/>
        <path class="cls-1" d="m346.63,94.05c0,.69-.53,1.25-1.25,1.25s-1.28-.55-1.28-1.25v-7.73h-5.77v7.73c0,.69-.53,1.25-1.25,1.25s-1.28-.55-1.28-1.25v-12.83c0-5.16,3.55-5.85,5.4-5.85s5.41.69,5.41,5.85v12.83Zm-2.52-10.03v-2.8c0-2.74-1.5-3.58-2.88-3.58s-2.88.83-2.88,3.58v2.8h5.77Z"/>
        <path class="cls-1" d="m349.76,76.87c0-.69.53-1.25,1.28-1.25s1.25.55,1.25,1.25v16.02h5.65c.61,0,1.11.47,1.11,1.14s-.5,1.14-1.11,1.14h-6.93c-.72,0-1.25-.55-1.25-1.25v-17.05Z"/>
      </g>
    </g>
  </g>
</svg>