<?xml version="1.0" encoding="utf-8"?>
<!-- Generator: Adobe Illustrator 25.0.0, SVG Export Plug-In . SVG Version: 6.00 Build 0)  -->
<svg version="1.1" id="Calque_1" xmlns="http://www.w3.org/2000/svg" xmlns:xlink="http://www.w3.org/1999/xlink" x="0px" y="0px"
	 viewBox="0 0 595.28 595.28" style="enable-background:new 0 0 595.28 595.28;" xml:space="preserve">
<style type="text/css">
	.st0{fill:#FEC800;}
	.st1{fill:#00A5A5;}
	.st2{fill:#E94A34;}
	.st3{fill:#FFFFFF;}
</style>
<g>
	<path class="st0" d="M340.69,367.77c75.92,0,137.45-61.54,137.45-137.45S416.6,92.86,340.69,92.86S203.23,154.4,203.23,230.32
		S264.77,367.77,340.69,367.77"/>
	<path class="st1" d="M175.45,144.88c-32.21,0-58.31,26.11-58.31,58.31v138.03c0,32.21,26.11,58.31,58.31,58.31H316.9
		c32.21,0,58.31-26.11,58.31-58.31V203.2c0-32.21-26.11-58.31-58.31-58.31H175.45z"/>
	<path class="st2" d="M368.36,197.23H226.91c-32.21,0-58.31,26.11-58.31,58.32v138.03c0,32.21,26.11,58.32,58.31,58.32l68.89,0
		l49.8,48.25c1.53,1.48,3.55,2.27,5.6,2.27c1.06,0,2.12-0.21,3.14-0.64c2.98-1.26,4.91-4.18,4.91-7.41V451.9l9.13,0
		c32.21,0,58.31-26.11,58.31-58.32V255.55C426.68,223.34,400.57,197.23,368.36,197.23z"/>
	<path class="st3" d="M344.96,351.51c-3.65,0-6.62-2.96-6.62-6.61v-40.66c0-13.76-11.19-24.96-24.96-24.96
		c-2.26,0-24.88-0.01-24.88-0.01v65.62c0,3.65-2.97,6.61-6.62,6.61c-3.65,0-6.62-2.96-6.62-6.61v-40.66
		c0-13.76-11.19-24.96-24.96-24.96c-13.77,0-24.96,11.2-24.96,24.96v63.96h18.35v-63.96c0-3.64,2.97-6.61,6.62-6.61
		c3.65,0,6.61,2.96,6.61,6.61v40.66c0,13.76,11.2,24.96,24.96,24.96c13.76,0,24.96-11.2,24.96-24.96v-41.68
		c0.49-3.16,3.24-5.59,6.54-5.59c3.65,0,6.61,2.96,6.61,6.61v40.66c0,13.76,11.2,24.96,24.96,24.96c13.76,0,24.96-11.2,24.96-24.96
		v-65.47H351.6l-0.01,65.47C351.58,348.54,348.61,351.51,344.96,351.51"/>
</g>
</svg>
